# xmcd
# 
# Track frame offsets:
#     150
#     25199
#     47830
#     71823
#     89548
#     116210
#     137093
#     164358
#     187357
#     226253
#     245073
#     279815
# 
# Disc length: 3929
# 
# Revision: 2
# Processed by: cddbd v1.5.2PL0 Copyright (c) Steve Scherf et al.
# Submitted via: fre:ac v1.0.31
# 
DISCID=b20f570c
DTITLE=Mick Fleetwood - Blue Again
DYEAR=2009
DGENRE=Blues
TTITLE0=Red Hot Gal
TTITLE1=Looking For Somebody
TTITLE2=Fleetwood Boogie
TTITLE3=Stop Messin' Around
TTITLE4=Rattlesnake Shake
TTITLE5=When We Do the Lucky Devil
TTITLE6=Love That Burns
TTITLE7=Medey - Rollin' Man/Bayou Queen
TTITLE8=Black Magic Woman
TTITLE9=I Got A Hole In My Shoe
TTITLE10=Shake Your Moneymaker
TTITLE11=Albatross
EXTD=YEAR: 2009
EXTT0=
EXTT1=
EXTT2=
EXTT3=
EXTT4=
EXTT5=
EXTT6=
EXTT7=
EXTT8=
EXTT9=
EXTT10=
EXTT11=
PLAYORDER=
